HIERARCHY
ROOT mixamorig7:Hips
{
	OFFSET 0.000000 99.793892 0.000000
	CHANNELS 6 Xposition Yposition Zposition Xrotation Yrotation Zrotation
	JOINT mixamorig7:Spine
	{
		OFFSET 0.000000 9.694397 -1.109700
		CHANNELS 3 Xrotation Yrotation Zrotation
		JOINT mixamorig7:Spine1
		{
			OFFSET 0.000000 11.310143 -1.294687
			CHANNELS 3 Xrotation Yrotation Zrotation
			JOINT mixamorig7:Spine2
			{
				OFFSET 0.000000 12.925888 -1.479643
				CHANNELS 3 Xrotation Yrotation Zrotation
				JOINT mixamorig7:Neck
				{
					OFFSET 0.000000 14.541641 -1.664600
					CHANNELS 3 Xrotation Yrotation Zrotation
					JOINT mixamorig7:Head
					{
						OFFSET 0.000000 6.944305 1.982500
						CHANNELS 3 Xrotation Yrotation Zrotation
						JOINT mixamorig7:HeadTop_End
						{
							OFFSET 0.000000 22.789597 6.506100
							CHANNELS 3 Xrotation Yrotation Zrotation
							End Site
							{
								OFFSET 0.000000 23.700119 0.000000
							}
						}
					}
				}
				JOINT mixamorig7:LeftShoulder
				{
					OFFSET 6.681300 12.786087 -1.621969
					CHANNELS 3 Xrotation Yrotation Zrotation
					JOINT mixamorig7:LeftArm
					{
						OFFSET 13.585576 -3.446136 0.085203
						CHANNELS 3 Xrotation Yrotation Zrotation
						JOINT mixamorig7:LeftForeArm
						{
							OFFSET 27.330299 0.000000 -0.000001
							CHANNELS 3 Xrotation Yrotation Zrotation
							JOINT mixamorig7:LeftHand
							{
								OFFSET 20.888802 0.000000 -0.000001
								CHANNELS 3 Xrotation Yrotation Zrotation
								JOINT mixamorig7:LeftHandThumb1
								{
									OFFSET 3.934731 -1.328445 2.632622
									CHANNELS 3 Xrotation Yrotation Zrotation
									JOINT mixamorig7:LeftHandThumb2
									{
										OFFSET 3.046997 -1.759186 1.759186
										CHANNELS 3 Xrotation Yrotation Zrotation
										JOINT mixamorig7:LeftHandThumb3
										{
											OFFSET 2.671288 -1.542267 1.542270
											CHANNELS 3 Xrotation Yrotation Zrotation
											JOINT mixamorig7:LeftHandThumb4
											{
												OFFSET 2.059540 -1.189072 1.189075
												CHANNELS 3 Xrotation Yrotation Zrotation
												End Site
												{
													OFFSET 1.871078 -1.157242 1.493111
												}
											}
										}
									}
								}
								JOINT mixamorig7:LeftHandIndex1
								{
									OFFSET 11.356102 -0.357925 2.480554
									CHANNELS 3 Xrotation Yrotation Zrotation
									JOINT mixamorig7:LeftHandIndex2
									{
										OFFSET 3.230431 0.000000 -0.000000
										CHANNELS 3 Xrotation Yrotation Zrotation
										JOINT mixamorig7:LeftHandIndex3
										{
											OFFSET 3.093842 0.000000 -0.000000
											CHANNELS 3 Xrotation Yrotation Zrotation
											JOINT mixamorig7:LeftHandIndex4
											{
												OFFSET 2.710304 0.000000 -0.000000
												CHANNELS 3 Xrotation Yrotation Zrotation
												End Site
												{
													OFFSET 2.710297 0.000031 0.002100
												}
											}
										}
									}
								}
								JOINT mixamorig7:LeftHandMiddle1
								{
									OFFSET 11.227951 0.000000 -0.000001
									CHANNELS 3 Xrotation Yrotation Zrotation
									JOINT mixamorig7:LeftHandMiddle2
									{
										OFFSET 3.465431 0.000000 0.000000
										CHANNELS 3 Xrotation Yrotation Zrotation
										JOINT mixamorig7:LeftHandMiddle3
										{
											OFFSET 3.340118 0.000000 0.000000
											CHANNELS 3 Xrotation Yrotation Zrotation
											JOINT mixamorig7:LeftHandMiddle4
											{
												OFFSET 2.993599 0.000000 0.000000
												CHANNELS 3 Xrotation Yrotation Zrotation
												End Site
												{
													OFFSET 2.993607 -0.000061 -0.003500
												}
											}
										}
									}
								}
								JOINT mixamorig7:LeftHandRing1
								{
									OFFSET 11.215385 -0.016006 -2.298895
									CHANNELS 3 Xrotation Yrotation Zrotation
									JOINT mixamorig7:LeftHandRing2
									{
										OFFSET 2.891907 0.000000 0.000000
										CHANNELS 3 Xrotation Yrotation Zrotation
										JOINT mixamorig7:LeftHandRing3
										{
											OFFSET 2.705215 0.000000 0.000000
											CHANNELS 3 Xrotation Yrotation Zrotation
											JOINT mixamorig7:LeftHandRing4
											{
												OFFSET 2.307037 0.000000 0.000000
												CHANNELS 3 Xrotation Yrotation Zrotation
												End Site
												{
													OFFSET 2.307007 0.000351 0.012295
												}
											}
										}
									}
								}
								JOINT mixamorig7:LeftHandPinky1
								{
									OFFSET 9.863464 -0.351425 -4.395246
									CHANNELS 3 Xrotation Yrotation Zrotation
									JOINT mixamorig7:LeftHandPinky2
									{
										OFFSET 2.647736 0.000000 0.000000
										CHANNELS 3 Xrotation Yrotation Zrotation
										JOINT mixamorig7:LeftHandPinky3
										{
											OFFSET 2.219719 0.000000 0.000000
											CHANNELS 3 Xrotation Yrotation Zrotation
											JOINT mixamorig7:LeftHandPinky4
											{
												OFFSET 1.855507 0.000000 0.000000
												CHANNELS 3 Xrotation Yrotation Zrotation
												End Site
												{
													OFFSET 1.855507 -0.000122 -0.005599
												}
											}
										}
									}
								}
							}
						}
					}
				}
				JOINT mixamorig7:RightShoulder
				{
					OFFSET -6.681300 12.786102 -1.707222
					CHANNELS 3 Xrotation Yrotation Zrotation
					JOINT mixamorig7:RightArm
					{
						OFFSET -13.585576 -3.446152 -0.085196
						CHANNELS 3 Xrotation Yrotation Zrotation
						JOINT mixamorig7:RightForeArm
						{
							OFFSET -27.318214 0.000000 0.000002
							CHANNELS 3 Xrotation Yrotation Zrotation
							JOINT mixamorig7:RightHand
							{
								OFFSET -20.889801 0.000000 0.000001
								CHANNELS 3 Xrotation Yrotation Zrotation
								JOINT mixamorig7:RightHandThumb1
								{
									OFFSET -4.042946 -1.401764 2.740883
									CHANNELS 3 Xrotation Yrotation Zrotation
									JOINT mixamorig7:RightHandThumb2
									{
										OFFSET -3.149010 -1.818085 1.818083
										CHANNELS 3 Xrotation Yrotation Zrotation
										JOINT mixamorig7:RightHandThumb3
										{
											OFFSET -2.605377 -1.504211 1.504218
											CHANNELS 3 Xrotation Yrotation Zrotation
											JOINT mixamorig7:RightHandThumb4
											{
												OFFSET -2.034538 -1.174637 1.174643
												CHANNELS 3 Xrotation Yrotation Zrotation
												End Site
												{
													OFFSET -1.808716 -1.141098 1.524937
												}
											}
										}
									}
								}
								JOINT mixamorig7:RightHandIndex1
								{
									OFFSET -11.498108 -0.223465 2.596514
									CHANNELS 3 Xrotation Yrotation Zrotation
									JOINT mixamorig7:RightHandIndex2
									{
										OFFSET -3.230072 0.000000 0.000000
										CHANNELS 3 Xrotation Yrotation Zrotation
										JOINT mixamorig7:RightHandIndex3
										{
											OFFSET -3.008400 0.000000 0.000000
											CHANNELS 3 Xrotation Yrotation Zrotation
											JOINT mixamorig7:RightHandIndex4
											{
												OFFSET -2.577469 0.000000 0.000000
												CHANNELS 3 Xrotation Yrotation Zrotation
												End Site
												{
													OFFSET -2.577400 -0.000381 -0.019196
												}
											}
										}
									}
								}
								JOINT mixamorig7:RightHandMiddle1
								{
									OFFSET -11.291573 0.000000 0.000000
									CHANNELS 3 Xrotation Yrotation Zrotation
									JOINT mixamorig7:RightHandMiddle2
									{
										OFFSET -3.513855 0.000000 0.000000
										CHANNELS 3 Xrotation Yrotation Zrotation
										JOINT mixamorig7:RightHandMiddle3
										{
											OFFSET -3.299538 0.000000 0.000000
											CHANNELS 3 Xrotation Yrotation Zrotation
											JOINT mixamorig7:RightHandMiddle4
											{
												OFFSET -2.888702 0.000000 0.000000
												CHANNELS 3 Xrotation Yrotation Zrotation
												End Site
												{
													OFFSET -2.888702 -0.000076 -0.003599
												}
											}
										}
									}
								}
								JOINT mixamorig7:RightHandRing1
								{
									OFFSET -11.158524 -0.069885 -2.264038
									CHANNELS 3 Xrotation Yrotation Zrotation
									JOINT mixamorig7:RightHandRing2
									{
										OFFSET -2.878105 0.000000 0.000000
										CHANNELS 3 Xrotation Yrotation Zrotation
										JOINT mixamorig7:RightHandRing3
										{
											OFFSET -2.739204 0.000000 0.000000
											CHANNELS 3 Xrotation Yrotation Zrotation
											JOINT mixamorig7:RightHandRing4
											{
												OFFSET -2.335304 0.000000 0.000000
												CHANNELS 3 Xrotation Yrotation Zrotation
												End Site
												{
													OFFSET -2.335297 0.000061 0.001999
												}
											}
										}
									}
								}
								JOINT mixamorig7:RightHandPinky1
								{
									OFFSET -9.865288 -0.197952 -4.417972
									CHANNELS 3 Xrotation Yrotation Zrotation
									JOINT mixamorig7:RightHandPinky2
									{
										OFFSET -2.659409 0.000000 0.000000
										CHANNELS 3 Xrotation Yrotation Zrotation
										JOINT mixamorig7:RightHandPinky3
										{
											OFFSET -2.181625 0.000000 0.000000
											CHANNELS 3 Xrotation Yrotation Zrotation
											JOINT mixamorig7:RightHandPinky4
											{
												OFFSET -1.923111 0.000000 0.000000
												CHANNELS 3 Xrotation Yrotation Zrotation
												End Site
												{
													OFFSET -1.923103 0.000153 0.005198
												}
											}
										}
									}
								}
							}
						}
					}
				}
			}
		}
	}
	JOINT mixamorig7:LeftUpLeg
	{
		OFFSET 8.726300 -5.393196 -0.445400
		CHANNELS 3 Xrotation Yrotation Zrotation
		JOINT mixamorig7:LeftLeg
		{
			OFFSET 0.203112 -40.995728 -2.240422
			CHANNELS 3 Xrotation Yrotation Zrotation
			JOINT mixamorig7:LeftFoot
			{
				OFFSET -0.203116 -41.811745 -4.341125
				CHANNELS 3 Xrotation Yrotation Zrotation
				JOINT mixamorig7:LeftToeBase
				{
					OFFSET 2.022961 -9.567262 15.917597
					CHANNELS 3 Xrotation Yrotation Zrotation
					JOINT mixamorig7:LeftToe_End
					{
						OFFSET 0.919500 0.587269 6.993709
						CHANNELS 3 Xrotation Yrotation Zrotation
						End Site
						{
							OFFSET 0.919500 0.587269 6.993710
						}
					}
				}
			}
		}
	}
	JOINT mixamorig7:RightUpLeg
	{
		OFFSET -8.726300 -5.393196 -0.458900
		CHANNELS 3 Xrotation Yrotation Zrotation
		JOINT mixamorig7:RightLeg
		{
			OFFSET -0.203119 -40.995686 -2.183443
			CHANNELS 3 Xrotation Yrotation Zrotation
			JOINT mixamorig7:RightFoot
			{
				OFFSET 0.203109 -41.812000 -3.686646
				CHANNELS 3 Xrotation Yrotation Zrotation
				JOINT mixamorig7:RightToeBase
				{
					OFFSET -2.022940 -9.566534 15.362668
					CHANNELS 3 Xrotation Yrotation Zrotation
					JOINT mixamorig7:RightToe_End
					{
						OFFSET -0.919481 0.587567 7.048032
						CHANNELS 3 Xrotation Yrotation Zrotation
						End Site
						{
							OFFSET -0.919481 0.587567 7.048031
						}
					}
				}
			}
		}
	}
}
MOTION
Frames: 4
Frame Time: 0.016667
0.860471 87.132431 -1.545967 13.252306 10.340699 -7.828756 4.845046 4.902122 4.862757 4.674423 0.974299 10.527705 4.593610 1.040456 10.554725 -19.296854 -8.193153 -8.779067 12.222414 -5.330551 49.597504 0.000001 0.000001 0.000004 -0.898878 5.367485 9.135507 24.944537 -23.634654 -25.623627 0.000037 -119.274296 0.000019 30.306741 -10.909545 5.696327 -1.540028 3.690187 6.142358 14.069734 14.805075 1.548657 9.278733 9.257264 1.812867 0.000000 0.000003 0.000004 -0.370398 -2.952593 -6.565700 0.055461 0.873998 -7.262249 0.000003 0.000004 0.000001 0.000000 0.000002 -0.000003 0.000006 -0.001930 0.015974 0.060177 0.910263 -7.565238 0.000007 -0.000009 0.000003 -0.000001 0.000005 -0.000002 0.039279 0.735889 -6.109758 0.059922 0.908345 -7.549260 -0.000001 -0.000003 0.000001 -0.000002 -0.000001 -0.000001 0.807818 8.463471 -5.211977 0.050037 -3.146487 -8.055579 -0.000002 -0.000002 -0.000006 -0.000002 -0.000001 0.000002 0.551395 0.933298 7.928811 31.772780 21.230391 -1.390199 0.000018 65.369890 -0.000028 34.161560 28.785006 -15.714271 -1.849264 -3.581798 -6.586144 4.637187 -8.634146 -0.225412 -1.273757 0.137317 -2.094864 -0.000003 0.000010 -0.000004 -0.010176 3.092160 0.377187 0.059189 -0.907173 7.465916 -0.000006 -0.000000 0.000004 -0.000002 -0.000000 -0.000000 0.000006 -0.000000 0.000001 0.438615 -2.434826 20.421038 0.000005 -0.000003 -0.000004 -0.000000 -0.000004 0.000002 0.000006 -0.000013 -0.000005 0.122454 -1.301856 10.747339 0.000016 -0.000002 -0.000002 0.000001 -0.000002 0.000002 -0.033090 -5.565840 -0.680459 0.278790 -1.952837 16.247330 -0.000012 -0.000012 -0.000000 -0.000002 0.000002 -0.000001 -37.761036 15.621351 -13.254516 46.169384 9.484965 2.444154 -23.250454 -3.356041 17.780410 -4.812722 -0.000012 0.000036 0.000001 -0.000001 0.000000 -22.073063 3.174848 -30.131140 19.952927 -11.511019 -4.366512 27.329508 -3.251235 23.715745 -15.468444 -0.175563 3.165892 -0.000001 -0.000001 -0.000001 
0.755842 87.030876 -2.372124 12.706383 10.064635 -7.989940 4.839947 4.836375 4.759403 4.799026 0.979894 10.669737 4.718296 1.047523 10.696951 -19.457257 -7.758300 -8.664086 10.816409 -5.557595 49.004971 -0.000000 -0.000001 -0.000000 -1.022424 5.112777 11.233608 24.053696 -27.528353 -28.416722 0.000046 -118.746609 0.000010 30.328400 -10.298517 6.453459 -1.540055 3.690195 6.142343 14.069735 14.805077 1.548662 9.278736 9.257266 1.812869 0.000000 0.000002 0.000000 -0.354954 -2.990471 -6.267566 0.051579 0.843030 -7.003471 0.000007 0.000001 -0.000002 0.000001 -0.000001 0.000001 -0.000003 -0.001921 0.015984 0.055903 0.877440 -7.291195 -0.000005 0.000006 -0.000009 -0.000001 0.000003 0.000003 0.035538 0.700122 -5.811732 0.055655 0.875542 -7.275208 -0.000003 -0.000001 -0.000005 -0.000002 0.000002 -0.000000 0.763503 8.431575 -4.910256 0.045456 -3.179225 -7.781843 -0.000007 0.000004 -0.000005 -0.000000 -0.000000 -0.000001 0.537270 -0.108481 8.096242 33.528057 21.874659 -5.822837 -0.000029 66.194751 0.000026 33.633675 27.562284 -13.001379 -1.849260 -3.581798 -6.586144 4.637184 -8.634138 -0.225409 -1.273759 0.137322 -2.094864 -0.000002 0.000005 -0.000009 -0.010178 3.092165 0.377188 0.071702 -0.998087 8.218893 0.000011 0.000020 0.000008 -0.000002 0.000001 0.000001 -0.000003 -0.000003 -0.000004 0.438630 -2.434843 20.421050 -0.000004 0.000005 0.000005 0.000002 0.000001 -0.000001 0.000004 -0.000002 0.000008 0.140164 -1.391877 11.500527 0.000014 0.000012 0.000005 0.000004 -0.000002 0.000000 -0.033084 -5.565829 -0.680464 0.308367 -2.051567 17.093943 0.000000 -0.000006 0.000018 0.000002 0.000002 -0.000001 -38.209977 15.689120 -13.018813 46.621109 9.424833 2.875280 -22.935534 -3.305076 17.749819 -4.455469 0.000005 0.000026 -0.000000 -0.000001 -0.000000 -21.725708 3.549559 -30.039370 19.817910 -11.371513 -3.842617 26.325800 -2.519374 23.486043 -15.174261 -0.164520 3.079589 -0.000001 0.000001 -0.000001 
0.686313 86.918121 -3.177853 12.158234 9.756601 -8.130641 4.837503 4.766810 4.656368 4.909054 0.983647 10.803981 4.828517 1.052709 10.831267 -19.551990 -7.387336 -8.504646 9.515306 -5.790676 48.545341 -0.000000 -0.000002 0.000002 -1.110764 4.833820 13.138646 22.875408 -31.039091 -31.204471 0.000016 -118.371276 0.000010 30.225701 -9.720892 6.984853 -1.540047 3.690180 6.142341 14.069732 14.805080 1.548653 9.278734 9.257263 1.812867 -0.000000 0.000004 0.000000 -0.342387 -3.020778 -6.028136 0.048565 0.818129 -6.795687 0.000003 -0.000003 0.000004 -0.000002 0.000002 0.000001 0.000002 -0.001930 0.015972 0.052579 0.851143 -7.071131 0.000003 -0.000005 -0.000001 -0.000002 -0.000003 -0.000001 0.032677 0.671388 -5.572427 0.052352 0.849208 -7.055144 -0.000011 0.000005 0.000009 0.000001 -0.000002 0.000002 0.728032 8.405828 -4.668022 0.041916 -3.205541 -7.562050 0.000002 0.000001 0.000005 0.000001 -0.000000 -0.000002 0.531063 -1.072019 8.329884 35.365015 22.295397 -9.917151 -0.000004 66.890618 -0.000005 33.123030 26.540198 -10.562019 -1.849268 -3.581798 -6.586144 4.637178 -8.634128 -0.225401 -1.273755 0.137327 -2.094868 -0.000007 0.000002 -0.000000 -0.010182 3.092162 0.377187 0.086294 -1.094226 9.017200 -0.000010 -0.000003 -0.000002 -0.000002 -0.000002 0.000002 -0.000006 0.000010 0.000000 0.438635 -2.434842 20.421038 -0.000005 -0.000006 0.000004 -0.000003 -0.000002 0.000002 0.000002 0.000006 0.000011 0.160227 -1.487039 12.299059 -0.000002 0.000001 0.000003 0.000002 0.000000 -0.000003 -0.033093 -5.565834 -0.680463 0.341325 -2.155714 17.991567 0.000010 0.000013 0.000001 0.000002 -0.000001 0.000000 -38.614816 15.789574 -12.796259 47.031084 9.368731 3.262202 -22.622174 -3.227705 17.757367 -4.146483 0.000006 0.000028 0.000001 -0.000001 0.000000 -21.483076 3.967311 -29.964959 19.730333 -11.257216 -3.378975 25.641761 -1.845273 23.252522 -14.999971 -0.153268 2.981577 -0.000001 0.000000 -0.000000 
0.694344 86.778008 -3.935541 11.601985 9.419716 -8.215211 4.834642 4.692151 4.541703 4.985782 0.984226 10.925175 4.905558 1.054626 10.952342 -19.551724 -7.092382 -8.255222 8.376514 -6.010525 48.165159 0.000001 -0.000001 0.000000 -1.137244 4.483985 14.600569 21.607496 -33.724790 -33.623437 0.000034 -118.370184 0.000020 29.801372 -9.223932 6.987414 -1.540033 3.690188 6.142353 14.069730 14.805075 1.548661 9.278728 9.257269 1.812863 -0.000001 0.000001 0.000004 -0.336302 -3.035378 -5.912765 0.047316 0.807468 -6.706535 0.000006 -0.000007 -0.000003 -0.000001 0.000001 0.000001 -0.000005 -0.001931 0.015981 0.051197 0.839813 -6.976732 0.000005 0.000015 -0.000001 -0.000001 0.000003 0.000000 0.031351 0.657542 -5.457105 0.050962 0.837887 -6.960740 0.000002 -0.000002 -0.000000 0.000001 -0.000000 -0.000001 0.710986 8.393352 -4.551314 0.040434 -3.216834 -7.467730 -0.000001 -0.000006 0.000001 0.000000 0.000001 0.000005 0.536732 -1.886924 8.716638 36.914939 22.427606 -13.196174 -0.000003 67.283121 -0.000003 32.368738 25.980240 -8.729459 -1.849258 -3.581794 -6.586144 4.637186 -8.634128 -0.225406 -1.273752 0.137320 -2.094859 -0.000000 0.000008 -0.000002 -0.010178 3.092159 0.377185 0.108055 -1.223493 10.093285 0.000005 -0.000009 0.000002 -0.000002 0.000001 0.000000 0.000012 0.000016 0.000003 0.438630 -2.434838 20.421033 -0.000000 0.000011 -0.000008 -0.000002 0.000000 -0.000001 0.000013 0.000007 -0.000006 0.189356 -1.614856 13.375497 0.000015 0.000011 0.000004 -0.000002 -0.000000 0.000000 -0.033088 -5.565834 -0.680465 0.388306 -2.295285 19.201639 -0.000008 0.000006 -0.000001 -0.000001 -0.000000 0.000000 -38.895089 15.966902 -12.628582 47.347104 9.267448 3.554189 -22.361616 -3.100530 17.876688 -3.977761 0.000003 0.000031 0.000000 -0.000001 -0.000000 -21.478937 4.521941 -29.943409 19.806963 -11.221148 -3.075925 25.747417 -1.334802 23.059912 -15.201202 -0.138899 2.834909 -0.000001 0.000002 -0.000000 
